<svg xmlns="http://www.w3.org/2000/svg" version="1.1" xmlns:xlink="http://www.w3.org/1999/xlink" width="512" height="512" x="0" y="0" viewBox="0 0 32 32" style="enable-background:new 0 0 512 512" xml:space="preserve" class=""><g><path d="M27.5 9H27V8c0-2.757-2.243-5-5-5H10C7.243 3 5 5.243 5 8v1h-.5A2.503 2.503 0 0 0 2 11.5V14a1 1 0 1 0 2 0v-2.5a.5.5 0 0 1 .5-.5H5v10c0 1.628.794 3.063 2.002 3.976L7 25v2a2 2 0 0 0 2 2h1a2 2 0 0 0 2-2v-1h8v1a2 2 0 0 0 2 2h1a2 2 0 0 0 2-2v-2l-.002-.024C26.206 24.062 27 22.628 27 21V11h.5a.5.5 0 0 1 .5.5V14a1 1 0 1 0 2 0v-2.5c0-1.378-1.121-2.5-2.5-2.5zm-18 14a1.5 1.5 0 1 1 .001-3.001A1.5 1.5 0 0 1 9.5 23zm13 0a1.5 1.5 0 1 1 .001-3.001A1.5 1.5 0 0 1 22.5 23zm2.5-8.525c0 .977-.703 1.828-1.669 1.974a49.283 49.283 0 0 1-14.662 0C7.703 16.303 7 15.452 7 14.475V9a2 2 0 0 1 2-2h14a2 2 0 0 1 2 2z" fill="#ffff" opacity="1" data-original="#000000" class=""></path></g></svg>